<svg width="83" height="62" viewBox="0 0 83 62" fill="none" xmlns="http://www.w3.org/2000/svg">
<g clip-path="url(#clip0_93_12)">
<path d="M77.6283 13.8053H81.6398L69.018 0.0111266L59.8121 10.2754L50.5951 0L39.5552 12.2754L34.5215 6.63978L25.3017 16.9207L16.1013 6.65925L0 24.1113L0.124666 24.2253H4.10844L16.0709 11.2601L25.3017 21.5577L34.5187 11.2823L40.2256 17.669H44.3756L41.6302 14.5981L50.5923 4.63421L59.8121 14.9124L69.0402 4.62309L77.6283 14.0083V13.8053Z" fill="white"/>
<path d="M55.5539 60.3782H57.1358V59.9137H55.5539V58.8233H57.2521V58.356H55.0137V61.9415H57.2743V61.4742H55.5539V60.3782Z" fill="white"/>
<path d="M60.6345 60.2447C60.5328 60.1668 60.4209 60.1031 60.3021 60.0555C60.1884 60.0096 60.0718 59.9715 59.953 59.9415L59.6039 59.8524C59.5347 59.833 59.4627 59.8107 59.3851 59.7829C59.3113 59.7565 59.2407 59.722 59.1745 59.68C59.1111 59.6416 59.0571 59.5893 59.0166 59.527C58.9745 59.4607 58.9533 59.3831 58.9557 59.3045C58.9528 59.2043 58.9841 59.1062 59.0443 59.0263C59.1085 58.9432 59.1936 58.8789 59.2909 58.84C59.4113 58.7909 59.5405 58.7672 59.6704 58.7704C59.8502 58.763 60.0279 58.8106 60.1802 58.9067C60.2453 58.9493 60.2999 59.0063 60.3398 59.0733C60.3796 59.1403 60.4037 59.2156 60.4101 59.2934H60.9309C60.9288 59.1093 60.8698 58.9304 60.7619 58.7815C60.6506 58.6268 60.4993 58.5056 60.3242 58.431C60.1228 58.342 59.9043 58.2983 59.6843 58.3031C59.4625 58.2989 59.2424 58.3425 59.0388 58.431C58.8589 58.5091 58.7024 58.6327 58.5844 58.7899C58.4725 58.9481 58.4142 59.1382 58.4182 59.3323C58.414 59.4446 58.4341 59.5565 58.4771 59.6602C58.5202 59.764 58.5852 59.8571 58.6676 59.9331C58.8642 60.0992 59.0965 60.2173 59.3463 60.278L59.7702 60.3921C59.8872 60.4243 60.0019 60.4643 60.1137 60.5117C60.2054 60.5487 60.2877 60.6057 60.3547 60.6786C60.4173 60.7509 60.45 60.8444 60.4461 60.9401C60.447 61.0507 60.4109 61.1584 60.3436 61.246C60.2694 61.3357 60.1743 61.4055 60.0666 61.4491C59.9366 61.4987 59.7984 61.5232 59.6593 61.5214C59.5301 61.5225 59.4016 61.5008 59.2798 61.4575C59.1728 61.4193 59.0774 61.3542 59.0028 61.2683C58.9265 61.1778 58.8826 61.0642 58.8781 60.9456H58.3379C58.3448 61.1448 58.4083 61.3378 58.5207 61.502C58.636 61.6635 58.7945 61.7888 58.9778 61.8636C59.1974 61.9541 59.4332 61.9976 59.6704 61.9915C59.9157 61.9988 60.1596 61.9523 60.3852 61.8552C60.5675 61.7759 60.7239 61.6468 60.8367 61.4825C60.9406 61.3221 60.9946 61.1342 60.9919 60.9429C60.9966 60.7989 60.9642 60.6561 60.8977 60.5284C60.8313 60.4159 60.7415 60.3192 60.6345 60.2447Z" fill="white"/>
<path d="M61.9375 58.8233H63.0484V61.9415H63.5859V58.8233H64.6995V58.356H61.9375V58.8233Z" fill="white"/>
<path d="M65.9323 61.2769C65.887 61.2762 65.8421 61.2847 65.8002 61.3019C65.7583 61.3191 65.7203 61.3447 65.6885 61.377C65.6553 61.4089 65.629 61.4474 65.6114 61.49C65.5938 61.5326 65.5851 61.5785 65.586 61.6246C65.5851 61.6707 65.5938 61.7166 65.6114 61.7592C65.629 61.8018 65.6553 61.8402 65.6885 61.8721C65.7202 61.9049 65.7581 61.9309 65.8 61.9485C65.8418 61.9662 65.8869 61.9752 65.9323 61.9751C65.9936 61.9752 66.0539 61.9589 66.1068 61.9278C66.1585 61.8955 66.2021 61.8517 66.2343 61.7998C66.2653 61.7467 66.2815 61.6862 66.2814 61.6246C66.2822 61.5785 66.2736 61.5326 66.2559 61.49C66.2383 61.4474 66.212 61.4089 66.1788 61.377C66.1465 61.3446 66.1081 61.319 66.0657 61.3018C66.0233 61.2846 65.978 61.2761 65.9323 61.2769Z" fill="white"/>
<path d="M69.9408 61.4519L70.65 60.7065C70.8291 60.5297 70.9992 60.344 71.1597 60.1502C71.2651 60.0227 71.351 59.8802 71.4146 59.7273C71.4639 59.6025 71.4893 59.4694 71.4894 59.3351C71.4924 59.1523 71.4423 58.9725 71.3454 58.8177C71.2474 58.6615 71.1084 58.5354 70.9437 58.4534C70.7597 58.3614 70.5563 58.3156 70.3508 58.3199C70.1445 58.3162 69.9403 58.362 69.7552 58.4534C69.5865 58.5405 69.4447 58.6723 69.3452 58.8344C69.243 59.0077 69.1912 59.2062 69.1956 59.4074H69.7081C69.7052 59.2905 69.7319 59.1747 69.7857 59.0709C69.8359 58.9772 69.9119 58.9 70.0045 58.8483C70.1078 58.794 70.2232 58.7672 70.3397 58.7705C70.4517 58.7681 70.5626 58.7919 70.6638 58.84C70.758 58.8847 70.8377 58.955 70.8938 59.0431C70.951 59.1356 70.9799 59.243 70.9769 59.3518C70.9778 59.4543 70.957 59.5557 70.916 59.6494C70.8646 59.7553 70.8004 59.8543 70.7248 59.9443C70.6417 60.0472 70.5336 60.1669 70.4062 60.3032L69.1983 61.5604V61.9554H71.5476V61.4909H69.9408V61.4519Z" fill="white"/>
<path d="M74.6441 58.5257C74.4394 58.3783 74.1923 58.3021 73.9405 58.3088C73.6886 58.3021 73.4415 58.3783 73.2368 58.5257C73.0284 58.686 72.8722 58.9048 72.788 59.1544C72.6763 59.4741 72.6237 59.8115 72.6328 60.1502C72.6238 60.4898 72.6763 60.8281 72.788 61.1488C72.8714 61.3988 73.0266 61.6185 73.234 61.7802C73.4394 61.9287 73.6874 62.0058 73.9405 62C74.1924 62.0071 74.4396 61.9308 74.6441 61.783C74.8525 61.6217 75.0087 61.4019 75.0929 61.1516C75.2032 60.8296 75.2557 60.4906 75.2481 60.1502C75.2558 59.8116 75.2033 59.4744 75.0929 59.1544C75.0055 58.9064 74.8499 58.6885 74.6441 58.5257ZM74.5084 61.1766C74.458 61.2817 74.3795 61.3707 74.2817 61.4336C74.1838 61.4965 74.0705 61.5308 73.9543 61.5327C73.8007 61.5354 73.6519 61.4786 73.5388 61.3741C73.407 61.2456 73.3114 61.0844 73.2617 60.9068C73.1957 60.6602 73.1649 60.4055 73.1703 60.1502C73.1503 59.7958 73.2218 59.4422 73.3781 59.1238C73.428 59.0181 73.5064 58.9286 73.6043 58.8652C73.7021 58.8018 73.8157 58.7671 73.9322 58.7649C74.0853 58.7632 74.2333 58.821 74.3449 58.9263C74.4787 59.0543 74.5745 59.217 74.622 59.3964C74.6891 59.6418 74.7208 59.8957 74.7162 60.1502C74.7351 60.5045 74.6636 60.8578 74.5084 61.1766Z" fill="white"/>
<path d="M77.1156 61.4519L77.8248 60.7065C78.0039 60.5297 78.174 60.344 78.3346 60.1502C78.4396 60.0219 78.5263 59.8796 78.5922 59.7273C78.6395 59.602 78.6639 59.4691 78.6642 59.3351C78.6672 59.1523 78.6171 58.9725 78.5202 58.8177C78.4222 58.6615 78.2832 58.5354 78.1185 58.4534C77.9345 58.3614 77.7311 58.3156 77.5256 58.3199C77.3193 58.3162 77.1151 58.362 76.93 58.4534C76.7613 58.5405 76.6195 58.6723 76.52 58.8344C76.4179 59.0077 76.366 59.2062 76.3704 59.4074H76.8829C76.8813 59.2906 76.9079 59.1751 76.9605 59.0709C77.0107 58.9772 77.0867 58.9 77.1793 58.8483C77.2827 58.7944 77.398 58.7676 77.5145 58.7705C77.6274 58.7681 77.7392 58.7919 77.8414 58.84C77.9345 58.8851 78.0132 58.9554 78.0686 59.0431C78.1258 59.1356 78.1547 59.243 78.1517 59.3518C78.1526 59.4543 78.1318 59.5557 78.0908 59.6494C78.0404 59.7558 77.9761 59.855 77.8996 59.9443C77.8165 60.0472 77.7085 60.1669 77.581 60.3032L76.3731 61.5604V61.9554H78.7224V61.4909H77.1156V61.4519Z" fill="white"/>
<path d="M79.7998 58.9401V59.4575L80.6531 58.8984H80.6752V61.9415H81.2154V58.356H80.6891L79.7998 58.9401Z" fill="white"/>
<path d="M17.653 60.5423C20.609 60.139 23.5649 59.6605 26.5182 59.1348V56.4255C24.6712 56.7519 22.8317 57.0579 20.9996 57.3435V55.2155C22.6951 54.954 24.3896 54.6759 26.0832 54.381V51.6633C24.3878 51.9619 22.6932 52.2401 20.9996 52.4978V50.3699C22.8474 50.0917 24.6953 49.7746 26.5403 49.4464V46.7371C23.576 47.2628 20.6117 47.744 17.6475 48.1473L17.653 60.5423Z" fill="white"/>
<path d="M29.5654 48.8985C30.8029 48.6685 32.0403 48.4311 33.2777 48.1863V57.8665C34.3859 57.6495 35.4866 57.4298 36.58 57.2072V47.5271C37.8156 47.2786 39.0521 47.0273 40.2895 46.7733V44.064C36.7157 44.7955 33.142 45.5187 29.5654 46.1891V48.8985Z" fill="white"/>
<path d="M7.32727 56.2309H7.18321C6.22651 53.9518 5.27072 51.6625 4.31587 49.363C2.92515 49.4168 1.53536 49.4437 0.146484 49.4437V61.8331C1.23801 61.8331 2.33046 61.8164 3.42383 61.783V54.5702H3.52078C4.435 56.9123 5.35015 59.2434 6.26622 61.5633C6.92556 61.528 7.58491 61.4863 8.24426 61.4381C9.16771 59.0144 10.0828 56.5832 10.9897 54.1446H11.0866V61.3046C12.1782 61.2044 13.2706 61.0895 14.364 60.9597V48.573C12.9769 48.7343 11.5918 48.8762 10.2084 48.9986C9.24435 51.4186 8.28397 53.8294 7.32727 56.2309Z" fill="white"/>
<path d="M29.3994 25.7386V40.7233C32.6712 40.1113 35.943 39.4521 39.2148 38.7761V35.8359C37.1463 36.2587 35.0768 36.6741 33.0064 37.0821V25.0376C31.8041 25.2805 30.6018 25.5142 29.3994 25.7386Z" fill="white"/>
<path d="M21.4785 27.107V42.0917C22.6809 41.9062 23.8813 41.7087 25.08 41.4992V26.5117C23.8813 26.7213 22.6809 26.9197 21.4785 27.107Z" fill="white"/>
<path d="M8.91247 37.8942H8.73794C7.47465 34.8993 6.21137 31.8831 4.94809 28.8455C3.45763 28.9123 1.96995 28.9512 0.479492 28.954V43.9415C1.65228 43.9415 2.82322 43.9174 3.99231 43.8692V34.6147H4.11698C5.31747 37.6355 6.51242 40.6295 7.70182 43.5966C8.44059 43.5465 9.18858 43.489 9.94581 43.4241C11.1426 40.2864 12.3431 37.1339 13.5473 33.9665L13.6692 33.9526V43.1571C14.842 43.0273 16.0129 42.8835 17.182 42.7259V27.7412C15.6934 27.9415 14.2048 28.1204 12.7162 28.2781C11.4437 31.4974 10.1758 34.7027 8.91247 37.8942Z" fill="white"/>
<path d="M65.2527 40.0417C64.2807 39.674 63.2275 39.5778 62.2053 39.7635C61.1086 39.9246 60.0648 40.3419 59.1579 40.9819C58.2449 41.631 57.5047 42.4955 57.0026 43.4993C56.453 44.6234 56.1794 45.8634 56.2047 47.1154C56.2047 48.4858 56.4707 49.5985 57.0026 50.4534C57.498 51.2767 58.2583 51.9058 59.1579 52.2364C60.1355 52.5816 61.1856 52.6659 62.2053 52.4812C63.2957 52.3249 64.3371 51.9247 65.2527 51.3101C66.1665 50.6962 66.9116 49.861 67.4192 48.8818C67.9771 47.7703 68.2531 46.5377 68.2226 45.2934C68.2226 43.9165 67.9455 42.79 67.4192 41.9054C66.9236 41.0595 66.1612 40.4037 65.2527 40.0417ZM64.477 47.6634C64.3098 48.1616 64.0122 48.6055 63.6154 48.9485C63.2184 49.2757 62.739 49.4866 62.2303 49.5577C61.7562 49.6535 61.2639 49.591 60.8285 49.3797C60.4286 49.1542 60.1228 48.7919 59.9669 48.3588C59.7548 47.7728 59.6561 47.1516 59.676 46.5285C59.6622 45.8749 59.7606 45.2237 59.9669 44.6036C60.1348 44.101 60.432 43.6519 60.8285 43.3018C61.2287 42.9678 61.7145 42.7538 62.2303 42.6843C62.6999 42.5921 63.1866 42.6576 63.6154 42.8706C64.0168 43.1022 64.3224 43.4702 64.477 43.9082C64.6899 44.4959 64.7896 45.1189 64.7707 45.7441C64.7841 46.3961 64.6848 47.0455 64.477 47.6634Z" fill="white"/>
<path d="M46.7392 22.2671L43.1377 22.9987V37.9834L46.7392 37.2518V22.2671Z" fill="white"/>
<path d="M78.3877 26.4007H78.2658C76.3063 23.6079 74.3476 20.8643 72.3899 18.1698C71.3556 18.2644 70.3214 18.3701 69.2871 18.4869V33.4716C70.4894 33.3344 71.6899 33.2138 72.8886 33.11V24.4591H72.9828C74.9627 27.1721 76.9425 29.9296 78.9224 32.7317C79.9419 32.6927 80.9577 32.6686 81.9698 32.6594V17.6719C80.7712 17.683 79.5707 17.7145 78.3683 17.7665L78.3877 26.4007Z" fill="white"/>
<path d="M79.2152 38.2168C78.3711 41.1598 77.5271 44.1111 76.6831 47.0708H76.5889C75.743 44.2094 74.899 41.3555 74.0568 38.5089C72.7972 38.6091 71.5357 38.7268 70.2725 38.8622C71.6318 42.8474 72.9902 46.852 74.3477 50.8761C75.8732 50.7593 77.3987 50.6666 78.9243 50.5979C80.2818 46.4181 81.6402 42.2623 82.9995 38.1306C81.7362 38.1436 80.4748 38.1723 79.2152 38.2168Z" fill="white"/>
<path d="M52.556 48.0611C52.9574 47.3423 53.1602 46.5289 53.1433 45.705C53.1753 44.9449 52.9762 44.1931 52.5726 43.5492C52.1882 42.9926 51.6199 42.5906 50.9686 42.4144C50.1821 42.21 49.3581 42.1995 48.5667 42.3838C46.7918 42.7361 45.016 43.0949 43.2393 43.4603V55.8497L46.5886 55.1682V51.0792L47.7494 50.8455L49.9158 54.5061C51.1274 54.2669 52.3399 54.0333 53.5533 53.8052L51.0461 49.6605C51.6654 49.2513 52.1821 48.7039 52.556 48.0611ZM49.4227 47.2767C49.2647 47.5308 49.0431 47.739 48.78 47.8803C48.4625 48.0472 48.1215 48.1645 47.7688 48.228L46.5886 48.4672V45.4658L47.7688 45.2294C48.1003 45.1522 48.4433 45.1381 48.78 45.1876C49.027 45.2242 49.2519 45.351 49.4116 45.5437C49.5795 45.7879 49.6596 46.0822 49.6388 46.3782C49.6491 46.6932 49.5703 47.0047 49.4116 47.2767H49.4227Z" fill="white"/>
<path d="M58.0007 35.3212C59.3035 35.1051 60.5405 34.5954 61.6188 33.8303C62.7048 33.0578 63.5848 32.0289 64.1814 30.8344C64.8373 29.4895 65.1622 28.0061 65.1289 26.509C65.1289 24.8585 64.8131 23.5048 64.1814 22.4478C63.6015 21.4372 62.6984 20.653 61.6188 20.2225C61.533 20.1863 61.4471 20.1585 61.3612 20.1307L59.9566 23.3769C60.4403 23.6732 60.8162 24.1179 61.0288 24.6453C61.3281 25.4117 61.4686 26.2314 61.4415 27.0542C61.4597 27.919 61.3198 28.7797 61.0288 29.5938C60.7896 30.2594 60.383 30.8516 59.8486 31.3129C59.3184 31.7525 58.6801 32.0407 58.0007 32.1474C57.3817 32.2812 56.7362 32.2129 56.1585 31.9527C55.6179 31.6723 55.1967 31.2049 54.9727 30.6369C54.6736 29.8744 54.534 29.0582 54.5627 28.2392C54.5445 27.3719 54.6834 26.5085 54.9727 25.6912C55.2134 25.0178 55.6216 24.4174 56.1585 23.9471C56.6525 23.5313 57.2451 23.2506 57.8789 23.1321L59.3084 19.8108C58.8701 19.8151 58.4329 19.8542 58.0007 19.9276C56.6967 20.1496 55.463 20.6765 54.3993 21.4659C53.3123 22.2766 52.4361 23.3386 51.845 24.5618C51.1942 25.9253 50.8707 27.4229 50.9003 28.9346C50.9003 30.5795 51.2152 31.9128 51.845 32.9346C52.4274 33.9189 53.3293 34.6722 54.3993 35.0681C55.5559 35.4731 56.7992 35.5605 58.0007 35.3212Z" fill="white"/>
</g>
<defs>
<clipPath id="clip0_93_12">
<rect width="83" height="62" fill="white"/>
</clipPath>
</defs>
</svg>
