<svg width="129" height="36" viewBox="0 0 129 36" fill="none" xmlns="http://www.w3.org/2000/svg">
<path d="M68.0494 2.60938H73.2247V17.2763H70.3254V4.43013L70.3842 4.47165L67.5437 17.2822H63.5387L60.6511 4.44199L60.7099 4.41234V17.2763H57.7988V2.60938H62.9741L65.6265 15.8173H65.3677L68.0377 2.60938H68.0494Z" fill="white"/>
<path d="M77.1413 4.9936C76.6708 4.9936 76.2532 4.86905 75.9063 4.61403C75.5534 4.36493 75.377 4.00909 75.377 3.55241C75.377 3.09574 75.5534 2.72803 75.9063 2.47894C76.2591 2.22984 76.6708 2.09937 77.1413 2.09937C77.6117 2.09937 78.0352 2.22391 78.388 2.47894C78.7409 2.73396 78.9173 3.08981 78.9173 3.55241C78.9173 4.01502 78.7409 4.37086 78.388 4.61996C78.0352 4.86905 77.6235 4.9936 77.1413 4.9936ZM75.6298 17.2763V6.71353H78.6586V17.2763H75.6298V17.2763Z" fill="white"/>
<path d="M84.0809 1.73169V17.2763H81.064V1.73169H84.0809Z" fill="white"/>
<path d="M87.9098 4.9936C87.4393 4.9936 87.0218 4.86905 86.6748 4.61403C86.3219 4.36493 86.1455 4.00909 86.1455 3.55241C86.1455 3.09574 86.3219 2.72803 86.6748 2.47894C87.0277 2.22984 87.4393 2.09937 87.9098 2.09937C88.3803 2.09937 88.8037 2.22391 89.1566 2.47894C89.5094 2.73396 89.6859 3.08981 89.6859 3.55241C89.6859 4.01502 89.5094 4.37086 89.1566 4.61996C88.8037 4.86905 88.3921 4.9936 87.9098 4.9936ZM86.3984 17.2763V6.71353H89.4271V17.2763H86.3984V17.2763Z" fill="white"/>
<path d="M96.9312 17.5077C95.8021 17.5077 94.8023 17.2705 93.9437 16.8019C93.0851 16.3334 92.4087 15.681 91.9265 14.8566C91.4442 14.0323 91.2031 13.0774 91.2031 11.998C91.2031 10.9186 91.4442 9.97558 91.9265 9.1512C92.4087 8.32682 93.0792 7.68036 93.9437 7.22369C94.8023 6.76109 95.8021 6.52979 96.9312 6.52979C98.0604 6.52979 99.0602 6.76109 99.9188 7.22369C100.777 7.68629 101.454 8.32682 101.936 9.1512C102.418 9.97558 102.659 10.9245 102.659 11.998C102.659 13.0715 102.418 14.0323 101.936 14.8566C101.454 15.681 100.783 16.3275 99.9188 16.8019C99.0602 17.2705 98.0604 17.5077 96.9312 17.5077ZM96.9312 15.0642C97.4664 15.0642 97.9251 14.9397 98.3191 14.6846C98.7132 14.4356 99.019 14.0738 99.2366 13.6171C99.4542 13.1545 99.56 12.6207 99.56 12.0039C99.56 11.3871 99.4542 10.8533 99.2366 10.3967C99.019 9.94 98.7132 9.59601 98.3191 9.34692C97.9251 9.10376 97.4605 8.97921 96.9312 8.97921C96.4019 8.97921 95.9432 9.10376 95.5433 9.34692C95.1434 9.59008 94.8376 9.94 94.62 10.3967C94.4024 10.8533 94.2965 11.3871 94.2965 12.0039C94.2965 12.6207 94.4024 13.1604 94.62 13.6171C94.8376 14.0797 95.1434 14.4356 95.5433 14.6846C95.9432 14.9337 96.4019 15.0642 96.9312 15.0642Z" fill="white"/>
<path d="M104.564 17.2764V6.71361H107.623V17.2764H104.564ZM111.939 17.2764V11.5472C111.939 11.1083 111.886 10.711 111.769 10.3492C111.651 9.98742 111.457 9.69681 111.169 9.47737C110.881 9.25793 110.463 9.15117 109.916 9.15117C109.446 9.15117 109.034 9.25793 108.687 9.47737C108.34 9.69681 108.075 9.99928 107.893 10.3907C107.711 10.7821 107.617 11.2329 107.617 11.7429L106.77 11.1261C106.77 10.2128 106.97 9.41213 107.364 8.71822C107.758 8.03025 108.293 7.49055 108.963 7.09911C109.64 6.70768 110.387 6.51196 111.204 6.51196C112.022 6.51196 112.774 6.68396 113.327 7.03387C113.886 7.38379 114.298 7.86419 114.568 8.48692C114.839 9.10966 114.98 9.83322 114.98 10.6576V17.2704H111.933L111.939 17.2764Z" fill="white"/>
<path d="M68.0494 21.0662H73.2247V35.733H70.3254V22.8869L70.3842 22.9284L67.5437 35.739H63.5387L60.6511 22.8988L60.7099 22.8691V35.739H57.7988V21.0721H62.9741L65.6265 34.28H65.3677L68.0377 21.0721L68.0494 21.0662Z" fill="white"/>
<path d="M76.9241 31.3798V29.3396H83.8637L83.5696 29.8556V29.5591C83.5696 29.1795 83.4814 28.8177 83.305 28.4678C83.1285 28.1179 82.8521 27.8332 82.4816 27.6137C82.1111 27.3943 81.6348 27.2816 81.0584 27.2816C80.4821 27.2816 79.9822 27.4062 79.5646 27.6553C79.1471 27.9044 78.8295 28.2602 78.606 28.7228C78.3826 29.1854 78.2767 29.7488 78.2767 30.4012C78.2767 31.0536 78.3826 31.6586 78.5943 32.139C78.806 32.6193 79.1295 32.9871 79.5529 33.248C79.9763 33.509 80.5056 33.6335 81.1349 33.6335C81.5407 33.6335 81.8935 33.5979 82.1876 33.5208C82.4816 33.4437 82.7227 33.3488 82.9109 33.2243C83.0991 33.0997 83.2403 32.9752 83.3403 32.8269C83.4402 32.6787 83.499 32.5363 83.5167 32.3999H86.5337C86.4925 32.8447 86.3396 33.2777 86.0808 33.7106C85.8162 34.1376 85.4515 34.5231 84.9869 34.8671C84.5223 35.2111 83.9519 35.478 83.2873 35.6796C82.6228 35.8813 81.8582 35.9762 81.0055 35.9762C79.8469 35.9762 78.8413 35.7449 77.9768 35.2764C77.1181 34.8078 76.4477 34.1614 75.9772 33.337C75.5067 32.5126 75.2656 31.5577 75.2656 30.4783C75.2656 29.3989 75.5067 28.4263 75.989 27.6019C76.4712 26.7775 77.1475 26.131 78.0121 25.6744C78.8766 25.2118 79.8763 24.9805 81.0173 24.9805C82.1582 24.9805 83.1874 25.2118 84.0342 25.6803C84.8811 26.1488 85.5339 26.8012 85.9985 27.6375C86.4631 28.4737 86.6866 29.4523 86.6866 30.5673C86.6866 30.7334 86.6866 30.8935 86.6748 31.0418C86.6689 31.196 86.6572 31.3086 86.6454 31.3798H76.9241V31.3798Z" fill="white"/>
<path d="M93.6497 35.9525C93.2498 35.9525 92.8381 35.9169 92.4147 35.8457C91.9913 35.7746 91.5972 35.6382 91.2326 35.4306C90.868 35.223 90.5739 34.9146 90.3505 34.5113C90.127 34.108 90.0152 33.5742 90.0152 32.91V27.5604H87.5981V25.1762H88.2803C88.6744 25.1762 88.9861 25.1584 89.2213 25.1288C89.4565 25.0932 89.6271 25.0101 89.7447 24.8737C89.8623 24.7373 89.9329 24.5238 89.9682 24.2332C90.0035 23.9426 90.0152 23.5393 90.0152 23.0293V21.6948H93.0793V25.1762H96.1256V27.5604H93.0793V32.0322C93.0793 32.4889 93.1322 32.8625 93.2439 33.1472C93.3557 33.4319 93.6262 33.5742 94.0555 33.5742C94.2731 33.5742 94.4789 33.5564 94.673 33.5149C94.8671 33.4734 95.0141 33.4378 95.1141 33.3963V35.7153C94.9729 35.7746 94.7847 35.8279 94.5319 35.8813C94.279 35.9347 93.9908 35.9584 93.6556 35.9584L93.6497 35.9525Z" fill="white"/>
<path d="M97.9663 35.7332V25.1704H101.03V28.8119L100.401 28.4146C100.472 27.9164 100.607 27.4597 100.795 27.0445C100.983 26.6294 101.23 26.2617 101.536 25.9533C101.836 25.6449 102.201 25.4076 102.618 25.2297C103.036 25.0577 103.512 24.9688 104.053 24.9688C104.471 24.9688 104.806 24.9984 105.041 25.0636C105.276 25.1289 105.429 25.1763 105.488 25.206L104.982 27.9697C104.924 27.9342 104.794 27.8808 104.588 27.8096C104.382 27.7384 104.124 27.7029 103.8 27.7029C103.277 27.7029 102.836 27.7918 102.477 27.9697C102.118 28.1477 101.836 28.3849 101.624 28.6814C101.413 28.978 101.26 29.3042 101.166 29.66C101.071 30.0159 101.03 30.3776 101.03 30.7454V35.7272H97.9663V35.7332Z" fill="white"/>
<path d="M112.087 35.9584C110.957 35.9584 109.958 35.7212 109.099 35.2526C108.24 34.7841 107.564 34.1317 107.082 33.3073C106.6 32.4829 106.358 31.5281 106.358 30.4487C106.358 29.3693 106.6 28.4263 107.082 27.6019C107.564 26.7775 108.234 26.131 109.099 25.6744C109.958 25.2118 110.957 24.9805 112.087 24.9805C113.216 24.9805 114.215 25.2118 115.074 25.6744C115.933 26.137 116.609 26.7775 117.091 27.6019C117.573 28.4263 117.815 29.3752 117.815 30.4487C117.815 31.5222 117.573 32.4829 117.091 33.3073C116.609 34.1317 115.939 34.7782 115.074 35.2526C114.215 35.7212 113.216 35.9584 112.087 35.9584ZM112.087 33.5149C112.622 33.5149 113.08 33.3904 113.474 33.1353C113.868 32.8862 114.174 32.5245 114.392 32.0678C114.609 31.6052 114.715 31.0714 114.715 30.4546C114.715 29.8378 114.609 29.304 114.392 28.8474C114.174 28.3907 113.868 28.0467 113.474 27.7976C113.08 27.5544 112.616 27.4299 112.087 27.4299C111.557 27.4299 111.098 27.5544 110.699 27.7976C110.299 28.0408 109.993 28.3907 109.775 28.8474C109.558 29.304 109.452 29.8378 109.452 30.4546C109.452 31.0714 109.558 31.6111 109.775 32.0678C109.993 32.5304 110.299 32.8862 110.699 33.1353C111.098 33.3844 111.557 33.5149 112.087 33.5149Z" fill="white"/>
<path d="M129 25.1702L125.824 35.7329H121.702L118.456 25.1702H121.614L124.001 34.7959H123.531L125.836 25.1702H129V25.1702Z" fill="white"/>
<path d="M26.5703 0C24.8472 0 23.2887 0.711697 22.1655 1.85634C21.0422 0.711697 19.4837 0 17.7606 0C14.3378 0 11.5679 2.79934 11.5679 6.24514C11.5679 13.2257 22.1713 20.9654 22.1713 20.9654C22.1713 20.9654 32.7748 12.5792 32.7748 6.24514C32.7748 2.79341 29.999 0 26.5821 0L26.5703 0Z" fill="white"/>
<path d="M45.5896 36.0001L32.3691 22.6736L22.7948 32.3289L13.2146 22.6736L0 36.0001L22.7948 35.8518L45.5896 36.0001Z" fill="white"/>
</svg>
