<?xml version="1.0" encoding="utf-8"?>
<!-- Generator: Adobe Illustrator 26.1.0, SVG Export Plug-In . SVG Version: 6.00 Build 0)  -->
<svg version="1.1" id="Layer_1" xmlns="http://www.w3.org/2000/svg" xmlns:xlink="http://www.w3.org/1999/xlink" x="0px" y="0px"
	 viewBox="0 0 1024 1024" style="enable-background:new 0 0 1024 1024;" xml:space="preserve">
<style type="text/css">
	.st0{fill:#006837;}
	.st1{fill:#FFFFFF;}
</style>
<path class="st0" d="M771.7,1024H252.3C112.9,1024,0,911.1,0,771.7V252.3C0,112.9,112.9,0,252.3,0h519.5
	C911.1,0,1024,112.9,1024,252.3v519.5C1024,911.1,911.1,1024,771.7,1024z"/>
<path class="st1" d="M503,521.7c0,0,149.9-117.6,149.9-206.5c0-48.5-39.2-87.7-87.7-87.7c-24.4,0-46.4,9.9-62.4,26
	c-15.9-16.1-38-26-62.4-26c-48.5,0-87.7,39.2-87.7,87.7C353.1,413.2,503,521.7,503,521.7L503,521.7z M647.5,545.5L512,680.9
	L376.5,545.5L189.6,732.5l322.4-2.2l322.4,2.2L647.5,545.5z"/>
</svg>
