<svg version="1.1" id="Layer_1" x="0" y="0" viewBox="0 0 257.6 71.3" xml:space="preserve">
  <path class="st0" d="M135.9 5.2h10.3v29h-5.8V8.8l.1.1-5.7 25.4h-8L121 8.9l.1-.1v25.5h-5.8v-29h10.3l5.3 26.2h-.5l5.5-26.3zM154.1 9.9c-.9 0-1.8-.2-2.5-.7-.7-.5-1.1-1.2-1.1-2.1 0-.9.4-1.6 1.1-2.1.7-.5 1.5-.7 2.5-.7s1.8.2 2.5.7c.7.5 1.1 1.2 1.1 2.1s-.4 1.6-1.1 2.1c-.8.4-1.6.7-2.5.7zM151 34.2V13.3h6v20.9h-6zM167.9 3.4v30.8h-6V3.4h6zM175.6 9.9c-.9 0-1.8-.2-2.5-.7-.7-.6-1.1-1.3-1.1-2.2 0-.9.4-1.6 1.1-2.1.7-.5 1.5-.7 2.5-.7s1.8.2 2.5.7c.7.5 1.1 1.2 1.1 2.1s-.4 1.6-1.1 2.1c-.8.5-1.6.8-2.5.8zm-3.1 24.3V13.3h6v20.9h-6zM193.6 34.7c-2.3 0-4.2-.5-6-1.4-1.7-.9-3.1-2.2-4-3.8-1-1.6-1.4-3.5-1.4-5.7 0-2.1.5-4 1.4-5.6s2.3-2.9 4-3.8c1.7-.9 3.7-1.4 6-1.4s4.2.5 6 1.4c1.7.9 3.1 2.2 4 3.8 1 1.6 1.4 3.5 1.4 5.6 0 2.1-.5 4-1.4 5.7-1 1.6-2.3 2.9-4 3.8-1.8.9-3.8 1.4-6 1.4zm0-4.9c1.1 0 2-.2 2.8-.7.8-.5 1.4-1.2 1.8-2.1.4-.9.6-2 .6-3.2s-.2-2.3-.6-3.2c-.4-.9-1-1.6-1.8-2.1s-1.7-.7-2.8-.7c-1.1 0-2 .2-2.8.7-.8.5-1.4 1.2-1.8 2.1-.4.9-.6 2-.6 3.2s.2 2.3.6 3.2c.4.9 1 1.6 1.8 2.1s1.7.7 2.8.7zM208.8 34.2V13.3h6.1v20.9h-6.1zm14.7 0V22.8c0-.9-.1-1.7-.3-2.4-.2-.7-.6-1.3-1.2-1.7-.6-.4-1.4-.6-2.5-.6-.9 0-1.8.2-2.5.6-.7.4-1.2 1-1.6 1.8-.4.8-.6 1.7-.6 2.7l-1.7-1.2c0-1.8.4-3.4 1.2-4.8.8-1.4 1.9-2.4 3.2-3.2 1.3-.8 2.8-1.2 4.5-1.2 1.7 0 3.1.3 4.2 1s1.9 1.6 2.5 2.9c.5 1.2.8 2.7.8 4.3v13h-6z"/>
  <g>
    <path class="st0" d="M135.9 41.7h10.3v29h-5.8V45.3l.1.1-5.7 25.4h-8L121 45.4l.1-.1v25.5h-5.8v-29h10.3l5.3 26.1h-.5l5.5-26.2zM153.6 62.1v-4h13.9l-.6 1v-.6c0-.7-.2-1.5-.5-2.2s-.9-1.3-1.6-1.7c-.7-.4-1.7-.7-2.8-.7-1.2 0-2.2.2-3 .7-.8.5-1.5 1.2-1.9 2.1-.4.9-.7 2-.7 3.3 0 1.3.2 2.5.6 3.4.4 1 1.1 1.7 1.9 2.2.8.5 1.9.8 3.2.8.8 0 1.5-.1 2.1-.2.6-.2 1.1-.3 1.4-.6.4-.2.7-.5.9-.8.2-.3.3-.6.4-.8h6c-.1.9-.4 1.7-.9 2.6-.5.8-1.3 1.6-2.2 2.3-.9.7-2.1 1.2-3.4 1.6-1.3.4-2.9.6-4.6.6-2.3 0-4.3-.5-6-1.4-1.7-.9-3.1-2.2-4-3.8-.9-1.6-1.4-3.5-1.4-5.7s.5-4.1 1.4-5.7c1-1.6 2.3-2.9 4-3.8 1.7-.9 3.7-1.4 6-1.4s4.3.5 6 1.4c1.7.9 3 2.2 3.9 3.9.9 1.7 1.4 3.6 1.4 5.8v.9c0 .3 0 .5-.1.7h-19.4zM187 71.2c-.8 0-1.6-.1-2.5-.2-.8-.1-1.6-.4-2.4-.8-.7-.4-1.3-1-1.8-1.8s-.7-1.9-.7-3.2V54.6h-4.8v-4.7h1.4c.8 0 1.4 0 1.9-.1s.8-.2 1-.5c.2-.3.4-.7.4-1.3.1-.6.1-1.4.1-2.4V43h6.1v6.9h6.1v4.7h-6.1V63.5c0 .9.1 1.6.3 2.2.2.6.8.8 1.6.8.4 0 .8 0 1.2-.1.4-.1.7-.2.9-.2v4.6c-.3.1-.7.2-1.2.3-.2 0-.8.1-1.5.1zM195.6 70.8v-21h6.1V57l-1.3-.8c.1-1 .4-1.9.8-2.7.4-.8.9-1.5 1.5-2.2.6-.6 1.3-1.1 2.2-1.4.8-.3 1.8-.5 2.9-.5.8 0 1.5.1 2 .2s.8.2.9.3l-1 5.5c-.1-.1-.4-.2-.8-.3-.4-.1-.9-.2-1.6-.2-1.1 0-1.9.2-2.6.5-.7.4-1.3.8-1.7 1.4-.4.6-.7 1.2-.9 1.9-.2.7-.3 1.4-.3 2.1v9.9h-6.2zM223.8 71.2c-2.3 0-4.2-.5-6-1.4-1.7-.9-3.1-2.2-4-3.8-1-1.6-1.4-3.5-1.4-5.7 0-2.1.5-4 1.4-5.6s2.3-2.9 4-3.8c1.7-.9 3.7-1.4 6-1.4s4.2.5 6 1.4c1.7.9 3.1 2.2 4 3.8 1 1.6 1.4 3.5 1.4 5.6 0 2.1-.5 4-1.4 5.7-1 1.6-2.3 2.9-4 3.8-1.7.9-3.7 1.4-6 1.4zm0-4.8c1.1 0 2-.3 2.8-.7.8-.5 1.4-1.2 1.8-2.1.4-.9.6-2 .6-3.2s-.2-2.3-.6-3.2c-.4-.9-1-1.6-1.8-2.1s-1.7-.7-2.8-.7c-1.1 0-2 .2-2.8.7-.8.5-1.4 1.2-1.8 2.1-.4.9-.6 2-.6 3.2s.2 2.3.6 3.2c.4.9 1 1.6 1.8 2.1.9.4 1.8.7 2.8.7zM257.6 49.8l-6.3 20.9H243l-6.5-20.9h6.3l4.8 19.1h-.9l4.6-19.1h6.3z"/>
  </g>
  <g>
    <path class="st0" d="M53.1 0c-3.4 0-6.6 1.4-8.8 3.7C42 1.4 38.9 0 35.5 0c-6.8 0-12.4 5.5-12.4 12.4 0 13.8 21.2 29.2 21.2 29.2S65.5 25 65.5 12.4C65.4 5.5 59.9 0 53.1 0z"/>
  </g>
  <g>
    <path class="st0" d="M91 71.3 64.6 44.9 45.5 64 26.4 44.9 0 71.3l45.5-.3z"/>
  </g>
</svg>
